%TF.GenerationSoftware,KiCad,Pcbnew,(5.1.4)-1*%
%TF.CreationDate,2020-10-17T09:34:39+00:00*%
%TF.ProjectId,Patch,50617463-682e-46b6-9963-61645f706362,v1.0*%
%TF.SameCoordinates,Original*%
%TF.FileFunction,Copper,L1,Top*%
%TF.FilePolarity,Positive*%
%FSLAX46Y46*%
G04 Gerber Fmt 4.6, Leading zero omitted, Abs format (unit mm)*
G04 Created by KiCad (PCBNEW (5.1.4)-1) date 2020-10-17 09:34:39*
%MOMM*%
%LPD*%
G04 APERTURE LIST*
%TA.AperFunction,ComponentPad*%
%ADD10C,3.000000*%
%TD*%
%TA.AperFunction,Conductor*%
%ADD11C,0.025400*%
%TD*%
G04 APERTURE END LIST*
D10*
%TO.P,J1,1*%
%TO.N,/RF_COPPER*%
X98818700Y-49860200D03*
%TD*%
D11*
%TO.N,/RF_COPPER*%
G36*
X111937500Y-64900147D02*
G01*
X106244647Y-70593000D01*
X85711900Y-70593000D01*
X85711900Y-60174700D01*
X92311500Y-60174700D01*
X92311500Y-66175700D01*
X92311744Y-66178178D01*
X92312467Y-66180560D01*
X92313640Y-66182756D01*
X92315220Y-66184680D01*
X92317144Y-66186260D01*
X92319340Y-66187433D01*
X92321722Y-66188156D01*
X92324200Y-66188400D01*
X105325200Y-66188400D01*
X105327678Y-66188156D01*
X105330060Y-66187433D01*
X105332256Y-66186260D01*
X105334180Y-66184680D01*
X105335760Y-66182756D01*
X105336933Y-66180560D01*
X105337656Y-66178178D01*
X105337900Y-66175700D01*
X105337900Y-60174700D01*
X105337656Y-60172222D01*
X105336933Y-60169840D01*
X105335760Y-60167644D01*
X105334180Y-60165720D01*
X105332256Y-60164140D01*
X105330060Y-60162967D01*
X105327678Y-60162244D01*
X105325200Y-60162000D01*
X103824200Y-60162000D01*
X103821722Y-60162244D01*
X103819340Y-60162967D01*
X103817144Y-60164140D01*
X103815220Y-60165720D01*
X103813640Y-60167644D01*
X103812467Y-60169840D01*
X103811744Y-60172222D01*
X103811500Y-60174700D01*
X103811500Y-64662000D01*
X93837900Y-64662000D01*
X93837900Y-60174700D01*
X93837656Y-60172222D01*
X93836933Y-60169840D01*
X93835760Y-60167644D01*
X93834180Y-60165720D01*
X93832256Y-60164140D01*
X93830060Y-60162967D01*
X93827678Y-60162244D01*
X93825200Y-60162000D01*
X92324200Y-60162000D01*
X92321722Y-60162244D01*
X92319340Y-60162967D01*
X92317144Y-60164140D01*
X92315220Y-60165720D01*
X92313640Y-60167644D01*
X92312467Y-60169840D01*
X92311744Y-60172222D01*
X92311500Y-60174700D01*
X85711900Y-60174700D01*
X85711900Y-50969006D01*
X97727996Y-50969006D01*
X97905519Y-51138862D01*
X98172520Y-51292445D01*
X98464353Y-51390989D01*
X98769804Y-51430705D01*
X99077134Y-51410067D01*
X99374533Y-51329869D01*
X99650571Y-51193192D01*
X99731881Y-51138862D01*
X99909404Y-50969006D01*
X98818700Y-49878302D01*
X97727996Y-50969006D01*
X85711900Y-50969006D01*
X85711900Y-50060253D01*
X85960849Y-49811304D01*
X97248195Y-49811304D01*
X97268833Y-50118634D01*
X97349031Y-50416033D01*
X97485708Y-50692071D01*
X97540038Y-50773381D01*
X97709894Y-50950904D01*
X98800598Y-49860200D01*
X98836802Y-49860200D01*
X99927506Y-50950904D01*
X100097362Y-50773381D01*
X100250945Y-50506380D01*
X100349489Y-50214547D01*
X100389205Y-49909096D01*
X100368567Y-49601766D01*
X100288369Y-49304367D01*
X100151692Y-49028329D01*
X100097362Y-48947019D01*
X99927506Y-48769496D01*
X98836802Y-49860200D01*
X98800598Y-49860200D01*
X97709894Y-48769496D01*
X97540038Y-48947019D01*
X97386455Y-49214020D01*
X97287911Y-49505853D01*
X97248195Y-49811304D01*
X85960849Y-49811304D01*
X87020759Y-48751394D01*
X97727996Y-48751394D01*
X98818700Y-49842098D01*
X99909404Y-48751394D01*
X99731881Y-48581538D01*
X99464880Y-48427955D01*
X99173047Y-48329411D01*
X98867596Y-48289695D01*
X98560266Y-48310333D01*
X98262867Y-48390531D01*
X97986829Y-48527208D01*
X97905519Y-48581538D01*
X97727996Y-48751394D01*
X87020759Y-48751394D01*
X91404753Y-44367400D01*
X111937500Y-44367400D01*
X111937500Y-64900147D01*
X111937500Y-64900147D01*
G37*
X111937500Y-64900147D02*
X106244647Y-70593000D01*
X85711900Y-70593000D01*
X85711900Y-60174700D01*
X92311500Y-60174700D01*
X92311500Y-66175700D01*
X92311744Y-66178178D01*
X92312467Y-66180560D01*
X92313640Y-66182756D01*
X92315220Y-66184680D01*
X92317144Y-66186260D01*
X92319340Y-66187433D01*
X92321722Y-66188156D01*
X92324200Y-66188400D01*
X105325200Y-66188400D01*
X105327678Y-66188156D01*
X105330060Y-66187433D01*
X105332256Y-66186260D01*
X105334180Y-66184680D01*
X105335760Y-66182756D01*
X105336933Y-66180560D01*
X105337656Y-66178178D01*
X105337900Y-66175700D01*
X105337900Y-60174700D01*
X105337656Y-60172222D01*
X105336933Y-60169840D01*
X105335760Y-60167644D01*
X105334180Y-60165720D01*
X105332256Y-60164140D01*
X105330060Y-60162967D01*
X105327678Y-60162244D01*
X105325200Y-60162000D01*
X103824200Y-60162000D01*
X103821722Y-60162244D01*
X103819340Y-60162967D01*
X103817144Y-60164140D01*
X103815220Y-60165720D01*
X103813640Y-60167644D01*
X103812467Y-60169840D01*
X103811744Y-60172222D01*
X103811500Y-60174700D01*
X103811500Y-64662000D01*
X93837900Y-64662000D01*
X93837900Y-60174700D01*
X93837656Y-60172222D01*
X93836933Y-60169840D01*
X93835760Y-60167644D01*
X93834180Y-60165720D01*
X93832256Y-60164140D01*
X93830060Y-60162967D01*
X93827678Y-60162244D01*
X93825200Y-60162000D01*
X92324200Y-60162000D01*
X92321722Y-60162244D01*
X92319340Y-60162967D01*
X92317144Y-60164140D01*
X92315220Y-60165720D01*
X92313640Y-60167644D01*
X92312467Y-60169840D01*
X92311744Y-60172222D01*
X92311500Y-60174700D01*
X85711900Y-60174700D01*
X85711900Y-50969006D01*
X97727996Y-50969006D01*
X97905519Y-51138862D01*
X98172520Y-51292445D01*
X98464353Y-51390989D01*
X98769804Y-51430705D01*
X99077134Y-51410067D01*
X99374533Y-51329869D01*
X99650571Y-51193192D01*
X99731881Y-51138862D01*
X99909404Y-50969006D01*
X98818700Y-49878302D01*
X97727996Y-50969006D01*
X85711900Y-50969006D01*
X85711900Y-50060253D01*
X85960849Y-49811304D01*
X97248195Y-49811304D01*
X97268833Y-50118634D01*
X97349031Y-50416033D01*
X97485708Y-50692071D01*
X97540038Y-50773381D01*
X97709894Y-50950904D01*
X98800598Y-49860200D01*
X98836802Y-49860200D01*
X99927506Y-50950904D01*
X100097362Y-50773381D01*
X100250945Y-50506380D01*
X100349489Y-50214547D01*
X100389205Y-49909096D01*
X100368567Y-49601766D01*
X100288369Y-49304367D01*
X100151692Y-49028329D01*
X100097362Y-48947019D01*
X99927506Y-48769496D01*
X98836802Y-49860200D01*
X98800598Y-49860200D01*
X97709894Y-48769496D01*
X97540038Y-48947019D01*
X97386455Y-49214020D01*
X97287911Y-49505853D01*
X97248195Y-49811304D01*
X85960849Y-49811304D01*
X87020759Y-48751394D01*
X97727996Y-48751394D01*
X98818700Y-49842098D01*
X99909404Y-48751394D01*
X99731881Y-48581538D01*
X99464880Y-48427955D01*
X99173047Y-48329411D01*
X98867596Y-48289695D01*
X98560266Y-48310333D01*
X98262867Y-48390531D01*
X97986829Y-48527208D01*
X97905519Y-48581538D01*
X97727996Y-48751394D01*
X87020759Y-48751394D01*
X91404753Y-44367400D01*
X111937500Y-44367400D01*
X111937500Y-64900147D01*
%TD*%
M02*
