%TF.GenerationSoftware,KiCad,Pcbnew,5.1.6-c6e7f7d~87~ubuntu20.04.1*%
%TF.CreationDate,2020-09-08T18:41:23+00:00*%
%TF.ProjectId,Patch,50617463-682e-46b6-9963-61645f706362,rev?*%
%TF.SameCoordinates,Original*%
%TF.FileFunction,Copper,L1,Top*%
%TF.FilePolarity,Positive*%
%FSLAX46Y46*%
G04 Gerber Fmt 4.6, Leading zero omitted, Abs format (unit mm)*
G04 Created by KiCad (PCBNEW 5.1.6-c6e7f7d~87~ubuntu20.04.1) date 2020-09-08 18:41:23*
%MOMM*%
%LPD*%
G01*
G04 APERTURE LIST*
%TA.AperFunction,ViaPad*%
%ADD10C,2.006400*%
%TD*%
%TA.AperFunction,NonConductor*%
%ADD11C,0.025400*%
%TD*%
G04 APERTURE END LIST*
D10*
%TO.N,GND*%
X148501100Y-97383600D03*
%TD*%
D11*
G36*
X161619900Y-112423547D02*
G01*
X155927047Y-118116400D01*
X135394300Y-118116400D01*
X135394300Y-107698100D01*
X141993900Y-107698100D01*
X141993900Y-113699100D01*
X141994144Y-113701578D01*
X141994867Y-113703960D01*
X141996040Y-113706156D01*
X141997620Y-113708080D01*
X141999544Y-113709660D01*
X142001740Y-113710833D01*
X142004122Y-113711556D01*
X142006600Y-113711800D01*
X155007600Y-113711800D01*
X155010078Y-113711556D01*
X155012460Y-113710833D01*
X155014656Y-113709660D01*
X155016580Y-113708080D01*
X155018160Y-113706156D01*
X155019333Y-113703960D01*
X155020056Y-113701578D01*
X155020300Y-113699100D01*
X155020300Y-107698100D01*
X155020056Y-107695622D01*
X155019333Y-107693240D01*
X155018160Y-107691044D01*
X155016580Y-107689120D01*
X155014656Y-107687540D01*
X155012460Y-107686367D01*
X155010078Y-107685644D01*
X155007600Y-107685400D01*
X153506600Y-107685400D01*
X153504122Y-107685644D01*
X153501740Y-107686367D01*
X153499544Y-107687540D01*
X153497620Y-107689120D01*
X153496040Y-107691044D01*
X153494867Y-107693240D01*
X153494144Y-107695622D01*
X153493900Y-107698100D01*
X153493900Y-112185400D01*
X143520300Y-112185400D01*
X143520300Y-107698100D01*
X143520056Y-107695622D01*
X143519333Y-107693240D01*
X143518160Y-107691044D01*
X143516580Y-107689120D01*
X143514656Y-107687540D01*
X143512460Y-107686367D01*
X143510078Y-107685644D01*
X143507600Y-107685400D01*
X142006600Y-107685400D01*
X142004122Y-107685644D01*
X142001740Y-107686367D01*
X141999544Y-107687540D01*
X141997620Y-107689120D01*
X141996040Y-107691044D01*
X141994867Y-107693240D01*
X141994144Y-107695622D01*
X141993900Y-107698100D01*
X135394300Y-107698100D01*
X135394300Y-97583653D01*
X135696912Y-97281041D01*
X147459800Y-97281041D01*
X147459800Y-97486159D01*
X147499817Y-97687336D01*
X147578312Y-97876840D01*
X147692270Y-98047390D01*
X147837310Y-98192430D01*
X148007860Y-98306388D01*
X148197364Y-98384883D01*
X148398541Y-98424900D01*
X148603659Y-98424900D01*
X148804836Y-98384883D01*
X148994340Y-98306388D01*
X149164890Y-98192430D01*
X149309930Y-98047390D01*
X149423888Y-97876840D01*
X149502383Y-97687336D01*
X149542400Y-97486159D01*
X149542400Y-97281041D01*
X149502383Y-97079864D01*
X149423888Y-96890360D01*
X149309930Y-96719810D01*
X149164890Y-96574770D01*
X148994340Y-96460812D01*
X148804836Y-96382317D01*
X148603659Y-96342300D01*
X148398541Y-96342300D01*
X148197364Y-96382317D01*
X148007860Y-96460812D01*
X147837310Y-96574770D01*
X147692270Y-96719810D01*
X147578312Y-96890360D01*
X147499817Y-97079864D01*
X147459800Y-97281041D01*
X135696912Y-97281041D01*
X141087153Y-91890800D01*
X161619900Y-91890800D01*
X161619900Y-112423547D01*
G37*
X161619900Y-112423547D02*
X155927047Y-118116400D01*
X135394300Y-118116400D01*
X135394300Y-107698100D01*
X141993900Y-107698100D01*
X141993900Y-113699100D01*
X141994144Y-113701578D01*
X141994867Y-113703960D01*
X141996040Y-113706156D01*
X141997620Y-113708080D01*
X141999544Y-113709660D01*
X142001740Y-113710833D01*
X142004122Y-113711556D01*
X142006600Y-113711800D01*
X155007600Y-113711800D01*
X155010078Y-113711556D01*
X155012460Y-113710833D01*
X155014656Y-113709660D01*
X155016580Y-113708080D01*
X155018160Y-113706156D01*
X155019333Y-113703960D01*
X155020056Y-113701578D01*
X155020300Y-113699100D01*
X155020300Y-107698100D01*
X155020056Y-107695622D01*
X155019333Y-107693240D01*
X155018160Y-107691044D01*
X155016580Y-107689120D01*
X155014656Y-107687540D01*
X155012460Y-107686367D01*
X155010078Y-107685644D01*
X155007600Y-107685400D01*
X153506600Y-107685400D01*
X153504122Y-107685644D01*
X153501740Y-107686367D01*
X153499544Y-107687540D01*
X153497620Y-107689120D01*
X153496040Y-107691044D01*
X153494867Y-107693240D01*
X153494144Y-107695622D01*
X153493900Y-107698100D01*
X153493900Y-112185400D01*
X143520300Y-112185400D01*
X143520300Y-107698100D01*
X143520056Y-107695622D01*
X143519333Y-107693240D01*
X143518160Y-107691044D01*
X143516580Y-107689120D01*
X143514656Y-107687540D01*
X143512460Y-107686367D01*
X143510078Y-107685644D01*
X143507600Y-107685400D01*
X142006600Y-107685400D01*
X142004122Y-107685644D01*
X142001740Y-107686367D01*
X141999544Y-107687540D01*
X141997620Y-107689120D01*
X141996040Y-107691044D01*
X141994867Y-107693240D01*
X141994144Y-107695622D01*
X141993900Y-107698100D01*
X135394300Y-107698100D01*
X135394300Y-97583653D01*
X135696912Y-97281041D01*
X147459800Y-97281041D01*
X147459800Y-97486159D01*
X147499817Y-97687336D01*
X147578312Y-97876840D01*
X147692270Y-98047390D01*
X147837310Y-98192430D01*
X148007860Y-98306388D01*
X148197364Y-98384883D01*
X148398541Y-98424900D01*
X148603659Y-98424900D01*
X148804836Y-98384883D01*
X148994340Y-98306388D01*
X149164890Y-98192430D01*
X149309930Y-98047390D01*
X149423888Y-97876840D01*
X149502383Y-97687336D01*
X149542400Y-97486159D01*
X149542400Y-97281041D01*
X149502383Y-97079864D01*
X149423888Y-96890360D01*
X149309930Y-96719810D01*
X149164890Y-96574770D01*
X148994340Y-96460812D01*
X148804836Y-96382317D01*
X148603659Y-96342300D01*
X148398541Y-96342300D01*
X148197364Y-96382317D01*
X148007860Y-96460812D01*
X147837310Y-96574770D01*
X147692270Y-96719810D01*
X147578312Y-96890360D01*
X147499817Y-97079864D01*
X147459800Y-97281041D01*
X135696912Y-97281041D01*
X141087153Y-91890800D01*
X161619900Y-91890800D01*
X161619900Y-112423547D01*
M02*
