%TF.GenerationSoftware,KiCad,Pcbnew,5.1.6-c6e7f7d~87~ubuntu20.04.1*%
%TF.CreationDate,2020-09-09T15:06:34+00:00*%
%TF.ProjectId,Patch,50617463-682e-46b6-9963-61645f706362,rev?*%
%TF.SameCoordinates,Original*%
%TF.FileFunction,Copper,L1,Top*%
%TF.FilePolarity,Positive*%
%FSLAX46Y46*%
G04 Gerber Fmt 4.6, Leading zero omitted, Abs format (unit mm)*
G04 Created by KiCad (PCBNEW 5.1.6-c6e7f7d~87~ubuntu20.04.1) date 2020-09-09 15:06:34*
%MOMM*%
%LPD*%
G01*
G04 APERTURE LIST*
%TA.AperFunction,ComponentPad*%
%ADD10C,3.000000*%
%TD*%
%TA.AperFunction,Conductor*%
%ADD11C,0.025400*%
%TD*%
G04 APERTURE END LIST*
D10*
%TO.P,J1,1*%
%TO.N,/RF_COPPER*%
X148501100Y-97383600D03*
%TD*%
D11*
%TO.N,/RF_COPPER*%
G36*
X161619900Y-112423547D02*
G01*
X155927047Y-118116400D01*
X135394300Y-118116400D01*
X135394300Y-107698100D01*
X141993900Y-107698100D01*
X141993900Y-113699100D01*
X141994144Y-113701578D01*
X141994867Y-113703960D01*
X141996040Y-113706156D01*
X141997620Y-113708080D01*
X141999544Y-113709660D01*
X142001740Y-113710833D01*
X142004122Y-113711556D01*
X142006600Y-113711800D01*
X155007600Y-113711800D01*
X155010078Y-113711556D01*
X155012460Y-113710833D01*
X155014656Y-113709660D01*
X155016580Y-113708080D01*
X155018160Y-113706156D01*
X155019333Y-113703960D01*
X155020056Y-113701578D01*
X155020300Y-113699100D01*
X155020300Y-107698100D01*
X155020056Y-107695622D01*
X155019333Y-107693240D01*
X155018160Y-107691044D01*
X155016580Y-107689120D01*
X155014656Y-107687540D01*
X155012460Y-107686367D01*
X155010078Y-107685644D01*
X155007600Y-107685400D01*
X153506600Y-107685400D01*
X153504122Y-107685644D01*
X153501740Y-107686367D01*
X153499544Y-107687540D01*
X153497620Y-107689120D01*
X153496040Y-107691044D01*
X153494867Y-107693240D01*
X153494144Y-107695622D01*
X153493900Y-107698100D01*
X153493900Y-112185400D01*
X143520300Y-112185400D01*
X143520300Y-107698100D01*
X143520056Y-107695622D01*
X143519333Y-107693240D01*
X143518160Y-107691044D01*
X143516580Y-107689120D01*
X143514656Y-107687540D01*
X143512460Y-107686367D01*
X143510078Y-107685644D01*
X143507600Y-107685400D01*
X142006600Y-107685400D01*
X142004122Y-107685644D01*
X142001740Y-107686367D01*
X141999544Y-107687540D01*
X141997620Y-107689120D01*
X141996040Y-107691044D01*
X141994867Y-107693240D01*
X141994144Y-107695622D01*
X141993900Y-107698100D01*
X135394300Y-107698100D01*
X135394300Y-98492406D01*
X147410396Y-98492406D01*
X147587919Y-98662262D01*
X147854920Y-98815845D01*
X148146753Y-98914389D01*
X148452204Y-98954105D01*
X148759534Y-98933467D01*
X149056933Y-98853269D01*
X149332971Y-98716592D01*
X149414281Y-98662262D01*
X149591804Y-98492406D01*
X148501100Y-97401702D01*
X147410396Y-98492406D01*
X135394300Y-98492406D01*
X135394300Y-97583653D01*
X135643249Y-97334704D01*
X146930595Y-97334704D01*
X146951233Y-97642034D01*
X147031431Y-97939433D01*
X147168108Y-98215471D01*
X147222438Y-98296781D01*
X147392294Y-98474304D01*
X148482998Y-97383600D01*
X148519202Y-97383600D01*
X149609906Y-98474304D01*
X149779762Y-98296781D01*
X149933345Y-98029780D01*
X150031889Y-97737947D01*
X150071605Y-97432496D01*
X150050967Y-97125166D01*
X149970769Y-96827767D01*
X149834092Y-96551729D01*
X149779762Y-96470419D01*
X149609906Y-96292896D01*
X148519202Y-97383600D01*
X148482998Y-97383600D01*
X147392294Y-96292896D01*
X147222438Y-96470419D01*
X147068855Y-96737420D01*
X146970311Y-97029253D01*
X146930595Y-97334704D01*
X135643249Y-97334704D01*
X136703159Y-96274794D01*
X147410396Y-96274794D01*
X148501100Y-97365498D01*
X149591804Y-96274794D01*
X149414281Y-96104938D01*
X149147280Y-95951355D01*
X148855447Y-95852811D01*
X148549996Y-95813095D01*
X148242666Y-95833733D01*
X147945267Y-95913931D01*
X147669229Y-96050608D01*
X147587919Y-96104938D01*
X147410396Y-96274794D01*
X136703159Y-96274794D01*
X141087153Y-91890800D01*
X161619900Y-91890800D01*
X161619900Y-112423547D01*
G37*
X161619900Y-112423547D02*
X155927047Y-118116400D01*
X135394300Y-118116400D01*
X135394300Y-107698100D01*
X141993900Y-107698100D01*
X141993900Y-113699100D01*
X141994144Y-113701578D01*
X141994867Y-113703960D01*
X141996040Y-113706156D01*
X141997620Y-113708080D01*
X141999544Y-113709660D01*
X142001740Y-113710833D01*
X142004122Y-113711556D01*
X142006600Y-113711800D01*
X155007600Y-113711800D01*
X155010078Y-113711556D01*
X155012460Y-113710833D01*
X155014656Y-113709660D01*
X155016580Y-113708080D01*
X155018160Y-113706156D01*
X155019333Y-113703960D01*
X155020056Y-113701578D01*
X155020300Y-113699100D01*
X155020300Y-107698100D01*
X155020056Y-107695622D01*
X155019333Y-107693240D01*
X155018160Y-107691044D01*
X155016580Y-107689120D01*
X155014656Y-107687540D01*
X155012460Y-107686367D01*
X155010078Y-107685644D01*
X155007600Y-107685400D01*
X153506600Y-107685400D01*
X153504122Y-107685644D01*
X153501740Y-107686367D01*
X153499544Y-107687540D01*
X153497620Y-107689120D01*
X153496040Y-107691044D01*
X153494867Y-107693240D01*
X153494144Y-107695622D01*
X153493900Y-107698100D01*
X153493900Y-112185400D01*
X143520300Y-112185400D01*
X143520300Y-107698100D01*
X143520056Y-107695622D01*
X143519333Y-107693240D01*
X143518160Y-107691044D01*
X143516580Y-107689120D01*
X143514656Y-107687540D01*
X143512460Y-107686367D01*
X143510078Y-107685644D01*
X143507600Y-107685400D01*
X142006600Y-107685400D01*
X142004122Y-107685644D01*
X142001740Y-107686367D01*
X141999544Y-107687540D01*
X141997620Y-107689120D01*
X141996040Y-107691044D01*
X141994867Y-107693240D01*
X141994144Y-107695622D01*
X141993900Y-107698100D01*
X135394300Y-107698100D01*
X135394300Y-98492406D01*
X147410396Y-98492406D01*
X147587919Y-98662262D01*
X147854920Y-98815845D01*
X148146753Y-98914389D01*
X148452204Y-98954105D01*
X148759534Y-98933467D01*
X149056933Y-98853269D01*
X149332971Y-98716592D01*
X149414281Y-98662262D01*
X149591804Y-98492406D01*
X148501100Y-97401702D01*
X147410396Y-98492406D01*
X135394300Y-98492406D01*
X135394300Y-97583653D01*
X135643249Y-97334704D01*
X146930595Y-97334704D01*
X146951233Y-97642034D01*
X147031431Y-97939433D01*
X147168108Y-98215471D01*
X147222438Y-98296781D01*
X147392294Y-98474304D01*
X148482998Y-97383600D01*
X148519202Y-97383600D01*
X149609906Y-98474304D01*
X149779762Y-98296781D01*
X149933345Y-98029780D01*
X150031889Y-97737947D01*
X150071605Y-97432496D01*
X150050967Y-97125166D01*
X149970769Y-96827767D01*
X149834092Y-96551729D01*
X149779762Y-96470419D01*
X149609906Y-96292896D01*
X148519202Y-97383600D01*
X148482998Y-97383600D01*
X147392294Y-96292896D01*
X147222438Y-96470419D01*
X147068855Y-96737420D01*
X146970311Y-97029253D01*
X146930595Y-97334704D01*
X135643249Y-97334704D01*
X136703159Y-96274794D01*
X147410396Y-96274794D01*
X148501100Y-97365498D01*
X149591804Y-96274794D01*
X149414281Y-96104938D01*
X149147280Y-95951355D01*
X148855447Y-95852811D01*
X148549996Y-95813095D01*
X148242666Y-95833733D01*
X147945267Y-95913931D01*
X147669229Y-96050608D01*
X147587919Y-96104938D01*
X147410396Y-96274794D01*
X136703159Y-96274794D01*
X141087153Y-91890800D01*
X161619900Y-91890800D01*
X161619900Y-112423547D01*
%TD*%
M02*
