%FSLAX45Y45*%
G04 Gerber Fmt 4.5, Leading zero omitted, Abs format (unit mm)*
G04 Created by KiCad (PCBNEW (5.1.4)-1) date 2020-10-17 09:35:08*
%MOMM*%
%LPD*%
G04 APERTURE LIST*
%ADD10C,0.001000*%
%ADD11C,0.200000*%
%ADD12C,0.300000*%
G04 APERTURE END LIST*
D10*
X12231870Y-8098020D02*
X12231870Y-3398020D01*
X12231870Y-3398020D02*
X7531870Y-3398020D01*
X7531870Y-3398020D02*
X7531870Y-8098020D01*
X7531870Y-8098020D02*
X12231870Y-8098020D01*
D11*
X7831870Y-3698020D02*
X8051870Y-3918020D01*
X8051870Y-3698020D02*
X7831870Y-3918020D01*
X7831870Y-7578020D02*
X8051870Y-7798020D01*
X8051870Y-7578020D02*
X7831870Y-7798020D01*
X11711870Y-7578020D02*
X11931870Y-7798020D01*
X11931870Y-7578020D02*
X11711870Y-7798020D01*
X11711870Y-3698020D02*
X11931870Y-3918020D01*
X11931870Y-3698020D02*
X11711870Y-3918020D01*
D12*
X7818248Y-8563784D02*
X7818248Y-8263784D01*
X7889677Y-8263784D01*
X7932534Y-8278070D01*
X7961106Y-8306641D01*
X7975391Y-8335213D01*
X7989677Y-8392356D01*
X7989677Y-8435213D01*
X7975391Y-8492356D01*
X7961106Y-8520927D01*
X7932534Y-8549499D01*
X7889677Y-8563784D01*
X7818248Y-8563784D01*
X8118248Y-8563784D02*
X8118248Y-8363784D01*
X8118248Y-8420927D02*
X8132534Y-8392356D01*
X8146820Y-8378070D01*
X8175391Y-8363784D01*
X8203963Y-8363784D01*
X8303963Y-8563784D02*
X8303963Y-8363784D01*
X8303963Y-8263784D02*
X8289677Y-8278070D01*
X8303963Y-8292356D01*
X8318248Y-8278070D01*
X8303963Y-8263784D01*
X8303963Y-8292356D01*
X8489677Y-8563784D02*
X8461106Y-8549499D01*
X8446820Y-8520927D01*
X8446820Y-8263784D01*
X8646820Y-8563784D02*
X8618248Y-8549499D01*
X8603963Y-8520927D01*
X8603963Y-8263784D01*
X8989677Y-8563784D02*
X8989677Y-8263784D01*
X9089677Y-8478070D01*
X9189677Y-8263784D01*
X9189677Y-8563784D01*
X9461106Y-8563784D02*
X9461106Y-8406642D01*
X9446820Y-8378070D01*
X9418248Y-8363784D01*
X9361106Y-8363784D01*
X9332534Y-8378070D01*
X9461106Y-8549499D02*
X9432534Y-8563784D01*
X9361106Y-8563784D01*
X9332534Y-8549499D01*
X9318248Y-8520927D01*
X9318248Y-8492356D01*
X9332534Y-8463784D01*
X9361106Y-8449499D01*
X9432534Y-8449499D01*
X9461106Y-8435213D01*
X9603963Y-8363784D02*
X9603963Y-8663784D01*
X9603963Y-8378070D02*
X9632534Y-8363784D01*
X9689677Y-8363784D01*
X9718248Y-8378070D01*
X9732534Y-8392356D01*
X9746820Y-8420927D01*
X9746820Y-8506642D01*
X9732534Y-8535213D01*
X9718248Y-8549499D01*
X9689677Y-8563784D01*
X9632534Y-8563784D01*
X9603963Y-8549499D01*
X9875391Y-8535213D02*
X9889677Y-8549499D01*
X9875391Y-8563784D01*
X9861106Y-8549499D01*
X9875391Y-8535213D01*
X9875391Y-8563784D01*
X9875391Y-8378070D02*
X9889677Y-8392356D01*
X9875391Y-8406642D01*
X9861106Y-8392356D01*
X9875391Y-8378070D01*
X9875391Y-8406642D01*
X7311820Y-8948070D02*
X7531820Y-9168070D01*
X7531820Y-8948070D02*
X7311820Y-9168070D01*
X7803963Y-8922356D02*
X7818248Y-8908070D01*
X7846820Y-8893784D01*
X7918248Y-8893784D01*
X7946820Y-8908070D01*
X7961106Y-8922356D01*
X7975391Y-8950927D01*
X7975391Y-8979499D01*
X7961106Y-9022356D01*
X7789677Y-9193784D01*
X7975391Y-9193784D01*
X8103963Y-9165213D02*
X8118248Y-9179499D01*
X8103963Y-9193784D01*
X8089677Y-9179499D01*
X8103963Y-9165213D01*
X8103963Y-9193784D01*
X8232534Y-8922356D02*
X8246820Y-8908070D01*
X8275391Y-8893784D01*
X8346820Y-8893784D01*
X8375391Y-8908070D01*
X8389677Y-8922356D01*
X8403963Y-8950927D01*
X8403963Y-8979499D01*
X8389677Y-9022356D01*
X8218248Y-9193784D01*
X8403963Y-9193784D01*
X8589677Y-8893784D02*
X8618248Y-8893784D01*
X8646820Y-8908070D01*
X8661106Y-8922356D01*
X8675391Y-8950927D01*
X8689677Y-9008070D01*
X8689677Y-9079499D01*
X8675391Y-9136642D01*
X8661106Y-9165213D01*
X8646820Y-9179499D01*
X8618248Y-9193784D01*
X8589677Y-9193784D01*
X8561106Y-9179499D01*
X8546820Y-9165213D01*
X8532534Y-9136642D01*
X8518248Y-9079499D01*
X8518248Y-9008070D01*
X8532534Y-8950927D01*
X8546820Y-8922356D01*
X8561106Y-8908070D01*
X8589677Y-8893784D01*
X8818248Y-9193784D02*
X8818248Y-8993784D01*
X8818248Y-9022356D02*
X8832534Y-9008070D01*
X8861106Y-8993784D01*
X8903963Y-8993784D01*
X8932534Y-9008070D01*
X8946820Y-9036642D01*
X8946820Y-9193784D01*
X8946820Y-9036642D02*
X8961106Y-9008070D01*
X8989677Y-8993784D01*
X9032534Y-8993784D01*
X9061106Y-9008070D01*
X9075391Y-9036642D01*
X9075391Y-9193784D01*
X9218248Y-9193784D02*
X9218248Y-8993784D01*
X9218248Y-9022356D02*
X9232534Y-9008070D01*
X9261106Y-8993784D01*
X9303963Y-8993784D01*
X9332534Y-9008070D01*
X9346820Y-9036642D01*
X9346820Y-9193784D01*
X9346820Y-9036642D02*
X9361106Y-9008070D01*
X9389677Y-8993784D01*
X9432534Y-8993784D01*
X9461106Y-9008070D01*
X9475391Y-9036642D01*
X9475391Y-9193784D01*
X10061106Y-8879499D02*
X9803963Y-9265213D01*
X10446820Y-8893784D02*
X10475391Y-8893784D01*
X10503963Y-8908070D01*
X10518248Y-8922356D01*
X10532534Y-8950927D01*
X10546820Y-9008070D01*
X10546820Y-9079499D01*
X10532534Y-9136642D01*
X10518248Y-9165213D01*
X10503963Y-9179499D01*
X10475391Y-9193784D01*
X10446820Y-9193784D01*
X10418248Y-9179499D01*
X10403963Y-9165213D01*
X10389677Y-9136642D01*
X10375391Y-9079499D01*
X10375391Y-9008070D01*
X10389677Y-8950927D01*
X10403963Y-8922356D01*
X10418248Y-8908070D01*
X10446820Y-8893784D01*
X10675391Y-9165213D02*
X10689677Y-9179499D01*
X10675391Y-9193784D01*
X10661106Y-9179499D01*
X10675391Y-9165213D01*
X10675391Y-9193784D01*
X10875391Y-8893784D02*
X10903963Y-8893784D01*
X10932534Y-8908070D01*
X10946820Y-8922356D01*
X10961106Y-8950927D01*
X10975391Y-9008070D01*
X10975391Y-9079499D01*
X10961106Y-9136642D01*
X10946820Y-9165213D01*
X10932534Y-9179499D01*
X10903963Y-9193784D01*
X10875391Y-9193784D01*
X10846820Y-9179499D01*
X10832534Y-9165213D01*
X10818248Y-9136642D01*
X10803963Y-9079499D01*
X10803963Y-9008070D01*
X10818248Y-8950927D01*
X10832534Y-8922356D01*
X10846820Y-8908070D01*
X10875391Y-8893784D01*
X11146820Y-9022356D02*
X11118248Y-9008070D01*
X11103963Y-8993784D01*
X11089677Y-8965213D01*
X11089677Y-8950927D01*
X11103963Y-8922356D01*
X11118248Y-8908070D01*
X11146820Y-8893784D01*
X11203963Y-8893784D01*
X11232534Y-8908070D01*
X11246820Y-8922356D01*
X11261106Y-8950927D01*
X11261106Y-8965213D01*
X11246820Y-8993784D01*
X11232534Y-9008070D01*
X11203963Y-9022356D01*
X11146820Y-9022356D01*
X11118248Y-9036642D01*
X11103963Y-9050927D01*
X11089677Y-9079499D01*
X11089677Y-9136642D01*
X11103963Y-9165213D01*
X11118248Y-9179499D01*
X11146820Y-9193784D01*
X11203963Y-9193784D01*
X11232534Y-9179499D01*
X11246820Y-9165213D01*
X11261106Y-9136642D01*
X11261106Y-9079499D01*
X11246820Y-9050927D01*
X11232534Y-9036642D01*
X11203963Y-9022356D01*
X11361106Y-8893784D02*
X11561106Y-8893784D01*
X11432534Y-9193784D01*
X11661106Y-8893784D02*
X11661106Y-8950927D01*
X11775391Y-8893784D02*
X11775391Y-8950927D01*
X12218248Y-9308070D02*
X12203963Y-9293784D01*
X12175391Y-9250927D01*
X12161106Y-9222356D01*
X12146820Y-9179499D01*
X12132534Y-9108070D01*
X12132534Y-9050927D01*
X12146820Y-8979499D01*
X12161106Y-8936642D01*
X12175391Y-8908070D01*
X12203963Y-8865213D01*
X12218248Y-8850927D01*
X12461106Y-8993784D02*
X12461106Y-9193784D01*
X12389677Y-8879499D02*
X12318248Y-9093784D01*
X12503963Y-9093784D01*
X12846820Y-9193784D02*
X12846820Y-8893784D01*
X12975391Y-9193784D02*
X12975391Y-9036642D01*
X12961106Y-9008070D01*
X12932534Y-8993784D01*
X12889677Y-8993784D01*
X12861106Y-9008070D01*
X12846820Y-9022356D01*
X13161106Y-9193784D02*
X13132534Y-9179499D01*
X13118248Y-9165213D01*
X13103963Y-9136642D01*
X13103963Y-9050927D01*
X13118248Y-9022356D01*
X13132534Y-9008070D01*
X13161106Y-8993784D01*
X13203963Y-8993784D01*
X13232534Y-9008070D01*
X13246820Y-9022356D01*
X13261106Y-9050927D01*
X13261106Y-9136642D01*
X13246820Y-9165213D01*
X13232534Y-9179499D01*
X13203963Y-9193784D01*
X13161106Y-9193784D01*
X13432534Y-9193784D02*
X13403963Y-9179499D01*
X13389677Y-9150927D01*
X13389677Y-8893784D01*
X13661106Y-9179499D02*
X13632534Y-9193784D01*
X13575391Y-9193784D01*
X13546820Y-9179499D01*
X13532534Y-9150927D01*
X13532534Y-9036642D01*
X13546820Y-9008070D01*
X13575391Y-8993784D01*
X13632534Y-8993784D01*
X13661106Y-9008070D01*
X13675391Y-9036642D01*
X13675391Y-9065213D01*
X13532534Y-9093784D01*
X13789677Y-9179499D02*
X13818248Y-9193784D01*
X13875391Y-9193784D01*
X13903963Y-9179499D01*
X13918248Y-9150927D01*
X13918248Y-9136642D01*
X13903963Y-9108070D01*
X13875391Y-9093784D01*
X13832534Y-9093784D01*
X13803963Y-9079499D01*
X13789677Y-9050927D01*
X13789677Y-9036642D01*
X13803963Y-9008070D01*
X13832534Y-8993784D01*
X13875391Y-8993784D01*
X13903963Y-9008070D01*
X14018248Y-9308070D02*
X14032534Y-9293784D01*
X14061106Y-9250927D01*
X14075391Y-9222356D01*
X14089677Y-9179499D01*
X14103963Y-9108070D01*
X14103963Y-9050927D01*
X14089677Y-8979499D01*
X14075391Y-8936642D01*
X14061106Y-8908070D01*
X14032534Y-8865213D01*
X14018248Y-8850927D01*
X14561106Y-9308070D02*
X14546820Y-9293784D01*
X14518248Y-9250927D01*
X14503963Y-9222356D01*
X14489677Y-9179499D01*
X14475391Y-9108070D01*
X14475391Y-9050927D01*
X14489677Y-8979499D01*
X14503963Y-8936642D01*
X14518248Y-8908070D01*
X14546820Y-8865213D01*
X14561106Y-8850927D01*
X14675391Y-8993784D02*
X14675391Y-9193784D01*
X14675391Y-9022356D02*
X14689677Y-9008070D01*
X14718248Y-8993784D01*
X14761106Y-8993784D01*
X14789677Y-9008070D01*
X14803963Y-9036642D01*
X14803963Y-9193784D01*
X14989677Y-9193784D02*
X14961106Y-9179499D01*
X14946820Y-9165213D01*
X14932534Y-9136642D01*
X14932534Y-9050927D01*
X14946820Y-9022356D01*
X14961106Y-9008070D01*
X14989677Y-8993784D01*
X15032534Y-8993784D01*
X15061106Y-9008070D01*
X15075391Y-9022356D01*
X15089677Y-9050927D01*
X15089677Y-9136642D01*
X15075391Y-9165213D01*
X15061106Y-9179499D01*
X15032534Y-9193784D01*
X14989677Y-9193784D01*
X15175391Y-8993784D02*
X15289677Y-8993784D01*
X15218248Y-8893784D02*
X15218248Y-9150927D01*
X15232534Y-9179499D01*
X15261106Y-9193784D01*
X15289677Y-9193784D01*
X15618248Y-8993784D02*
X15618248Y-9293784D01*
X15618248Y-9008070D02*
X15646820Y-8993784D01*
X15703963Y-8993784D01*
X15732534Y-9008070D01*
X15746820Y-9022356D01*
X15761106Y-9050927D01*
X15761106Y-9136642D01*
X15746820Y-9165213D01*
X15732534Y-9179499D01*
X15703963Y-9193784D01*
X15646820Y-9193784D01*
X15618248Y-9179499D01*
X15932534Y-9193784D02*
X15903963Y-9179499D01*
X15889677Y-9150927D01*
X15889677Y-8893784D01*
X16175391Y-9193784D02*
X16175391Y-9036642D01*
X16161106Y-9008070D01*
X16132534Y-8993784D01*
X16075391Y-8993784D01*
X16046820Y-9008070D01*
X16175391Y-9179499D02*
X16146820Y-9193784D01*
X16075391Y-9193784D01*
X16046820Y-9179499D01*
X16032534Y-9150927D01*
X16032534Y-9122356D01*
X16046820Y-9093784D01*
X16075391Y-9079499D01*
X16146820Y-9079499D01*
X16175391Y-9065213D01*
X16275391Y-8993784D02*
X16389677Y-8993784D01*
X16318248Y-8893784D02*
X16318248Y-9150927D01*
X16332534Y-9179499D01*
X16361106Y-9193784D01*
X16389677Y-9193784D01*
X16603963Y-9179499D02*
X16575391Y-9193784D01*
X16518248Y-9193784D01*
X16489677Y-9179499D01*
X16475391Y-9150927D01*
X16475391Y-9036642D01*
X16489677Y-9008070D01*
X16518248Y-8993784D01*
X16575391Y-8993784D01*
X16603963Y-9008070D01*
X16618248Y-9036642D01*
X16618248Y-9065213D01*
X16475391Y-9093784D01*
X16875391Y-9193784D02*
X16875391Y-8893784D01*
X16875391Y-9179499D02*
X16846820Y-9193784D01*
X16789677Y-9193784D01*
X16761106Y-9179499D01*
X16746820Y-9165213D01*
X16732534Y-9136642D01*
X16732534Y-9050927D01*
X16746820Y-9022356D01*
X16761106Y-9008070D01*
X16789677Y-8993784D01*
X16846820Y-8993784D01*
X16875391Y-9008070D01*
X16989677Y-9308070D02*
X17003963Y-9293784D01*
X17032534Y-9250927D01*
X17046820Y-9222356D01*
X17061106Y-9179499D01*
X17075391Y-9108070D01*
X17075391Y-9050927D01*
X17061106Y-8979499D01*
X17046820Y-8936642D01*
X17032534Y-8908070D01*
X17003963Y-8865213D01*
X16989677Y-8850927D01*
M02*
